# xmcd CD database file
#
# Track frame offsets:
#	150
#	7834
#	18815
#	33488
#	44854
#	63248
#	70534
#	81168
#	93364
#	109142
#	120376
#	133949
#	144289
#	154307
#	164345
#	175422
#	187160
#	197589
#	211581
#	224207
#	238641
#	248046
#	260378
#	272016
#	290771
#
# Disc length: 4197 seconds
#
# Revision: 0
# Processed by: cddbd v1.5.2PL0 Copyright (c) Steve Scherf et al.
# Submitted via: CDex 1.51
#
DISCID=6d106319
DTITLE=Various Artist - The Best Country Singers and Songs - Hereos Collection CD Two
DYEAR=2010
DGENRE=Country
TTITLE0=Don Gibson - Blue Blue Day
TTITLE1=Jack Greene - There Goes My Everything
TTITLE2=Jeanne Pruett - Satin Sheets
TTITLE3=Merle Haggard - Okie From Muskogee (Live)
TTITLE4=Juice Newton - Angel Of The Morning
TTITLE5=Buck Owens - Down On The Corner Of Love
TTITLE6=Dolly Parton - It Wasn't God Who Made Honky Tonk Angels
TTITLE7=Johnny Paycheck - Take This Job And Shove It
TTITLE8=Pam Tillis - Mi Vida Loca (My Crazy Life) (Live)
TTITLE9=Kitty Wells - Heartbreak USA
TTITLE10=Tanya Tucker - If Tour Heart Ain't Busy Tonight (Live)
TTITLE11=Porter Wagoner - Sorrow On The Rocks
TTITLE12=Faron Young - Live Fast, Love Hard, Die Young
TTITLE13=Willie Nelson - Pride Wins Again
TTITLE14=Ferlin Husky - Country Music Is Here To Stay
TTITLE15=Lee Greenwood - God Bless The USA (Live)
TTITLE16=Jack Greene - What Locks The Door
TTITLE17=Freddy Fender - Whiskey River (Live)
TTITLE18=Janie Fricke - Do Me With Love
TTITLE19=Lacy J Dalton - Working Class Man
TTITLE20=Lynn Anderson - Snowbird
TTITLE21=Moe Bandy - Two Lonely People
TTITLE22=Kenny Rogers - Elvira
TTITLE23=Alabama - I Wanna Be With You Tonight
TTITLE24=Restless Heart - The Bluest Eyes In Texas (Live)
EXTD=YEAR: 2010
EXTT0=
EXTT1=
EXTT2=
EXTT3=
EXTT4=
EXTT5=
EXTT6=
EXTT7=
EXTT8=
EXTT9=
EXTT10=
EXTT11=
EXTT12=
EXTT13=
EXTT14=
EXTT15=
EXTT16=
EXTT17=
EXTT18=
EXTT19=
EXTT20=
EXTT21=
EXTT22=
EXTT23=
EXTT24=
PLAYORDER=
